<mxfile host="app.diagrams.net" agent="Mozilla/5.0 (Macintosh; Intel Mac OS X 10_15_7) AppleWebKit/537.36 (KHTML, like Gecko) Chrome/130.0.0.0 Safari/537.36" version="24.8.6">
  <diagram name="Page-1" id="1ylbyY22oILJ3s1C2vvg">
    <mxGraphModel dx="1196" dy="1272" grid="0" gridSize="10" guides="1" tooltips="1" connect="1" arrows="1" fold="1" page="0" pageScale="1" pageWidth="827" pageHeight="1169" math="0" shadow="0">
      <root>
        <mxCell id="0" />
        <mxCell id="1" parent="0" />
        <mxCell id="-KRKk8wNR3I56EUiNq8g-5" value="" style="whiteSpace=wrap;html=1;aspect=fixed;" vertex="1" parent="1">
          <mxGeometry x="-208" y="-262" width="760" height="760" as="geometry" />
        </mxCell>
        <mxCell id="hnx5gWg1ZsdR3ENscnbk-1" value="ticket&amp;nbsp;&lt;div&gt;(task)&lt;/div&gt;" style="rounded=1;whiteSpace=wrap;html=1;" parent="1" vertex="1">
          <mxGeometry x="-76" y="-235" width="120" height="60" as="geometry" />
        </mxCell>
        <mxCell id="hnx5gWg1ZsdR3ENscnbk-2" value="develop" style="rounded=1;whiteSpace=wrap;html=1;" parent="1" vertex="1">
          <mxGeometry x="-76" y="-26" width="120" height="60" as="geometry" />
        </mxCell>
        <mxCell id="hnx5gWg1ZsdR3ENscnbk-3" value="main" style="rounded=1;whiteSpace=wrap;html=1;" parent="1" vertex="1">
          <mxGeometry x="-76" y="272" width="120" height="60" as="geometry" />
        </mxCell>
        <mxCell id="hnx5gWg1ZsdR3ENscnbk-5" style="edgeStyle=none;curved=1;rounded=0;orthogonalLoop=1;jettySize=auto;html=1;exitX=0.5;exitY=0;exitDx=0;exitDy=0;fontSize=12;startSize=8;endSize=8;" parent="1" edge="1">
          <mxGeometry relative="1" as="geometry">
            <mxPoint x="-16" y="416" as="sourcePoint" />
            <mxPoint x="-16" y="416" as="targetPoint" />
          </mxGeometry>
        </mxCell>
        <mxCell id="hnx5gWg1ZsdR3ENscnbk-6" style="edgeStyle=none;curved=1;rounded=0;orthogonalLoop=1;jettySize=auto;html=1;exitX=0.75;exitY=0;exitDx=0;exitDy=0;fontSize=12;startSize=8;endSize=8;" parent="1" edge="1">
          <mxGeometry relative="1" as="geometry">
            <mxPoint x="14" y="416" as="sourcePoint" />
            <mxPoint x="14" y="416" as="targetPoint" />
          </mxGeometry>
        </mxCell>
        <mxCell id="hnx5gWg1ZsdR3ENscnbk-7" value="" style="endArrow=classic;html=1;rounded=0;fontSize=12;startSize=8;endSize=8;curved=1;exitX=1;exitY=1;exitDx=0;exitDy=0;entryX=0;entryY=0.25;entryDx=0;entryDy=0;" parent="1" source="hnx5gWg1ZsdR3ENscnbk-1" target="hnx5gWg1ZsdR3ENscnbk-37" edge="1">
          <mxGeometry width="50" height="50" relative="1" as="geometry">
            <mxPoint x="144" y="-82" as="sourcePoint" />
            <mxPoint x="133" y="-142" as="targetPoint" />
          </mxGeometry>
        </mxCell>
        <mxCell id="hnx5gWg1ZsdR3ENscnbk-10" value="complete" style="edgeLabel;html=1;align=center;verticalAlign=middle;resizable=0;points=[];fontSize=12;" parent="hnx5gWg1ZsdR3ENscnbk-7" vertex="1" connectable="0">
          <mxGeometry x="-0.0793" y="1" relative="1" as="geometry">
            <mxPoint as="offset" />
          </mxGeometry>
        </mxCell>
        <mxCell id="hnx5gWg1ZsdR3ENscnbk-13" value="" style="endArrow=classic;html=1;rounded=0;fontSize=12;startSize=8;endSize=8;curved=1;exitX=0;exitY=0.75;exitDx=0;exitDy=0;entryX=1;entryY=0;entryDx=0;entryDy=0;" parent="1" source="hnx5gWg1ZsdR3ENscnbk-37" target="hnx5gWg1ZsdR3ENscnbk-2" edge="1">
          <mxGeometry width="50" height="50" relative="1" as="geometry">
            <mxPoint x="133" y="-82" as="sourcePoint" />
            <mxPoint x="204" y="130" as="targetPoint" />
          </mxGeometry>
        </mxCell>
        <mxCell id="hnx5gWg1ZsdR3ENscnbk-16" value="merge" style="edgeLabel;html=1;align=center;verticalAlign=middle;resizable=0;points=[];fontSize=12;" parent="hnx5gWg1ZsdR3ENscnbk-13" vertex="1" connectable="0">
          <mxGeometry x="0.0623" y="-2" relative="1" as="geometry">
            <mxPoint as="offset" />
          </mxGeometry>
        </mxCell>
        <mxCell id="hnx5gWg1ZsdR3ENscnbk-15" style="edgeStyle=none;curved=1;rounded=0;orthogonalLoop=1;jettySize=auto;html=1;exitX=0.5;exitY=0;exitDx=0;exitDy=0;fontSize=12;startSize=8;endSize=8;" parent="1" source="hnx5gWg1ZsdR3ENscnbk-2" target="hnx5gWg1ZsdR3ENscnbk-2" edge="1">
          <mxGeometry relative="1" as="geometry" />
        </mxCell>
        <mxCell id="hnx5gWg1ZsdR3ENscnbk-20" value="" style="endArrow=classic;html=1;rounded=0;fontSize=12;startSize=8;endSize=8;curved=1;exitX=0.5;exitY=0;exitDx=0;exitDy=0;entryX=0.5;entryY=1;entryDx=0;entryDy=0;dashed=1;dashPattern=8 8;" parent="1" source="hnx5gWg1ZsdR3ENscnbk-2" target="hnx5gWg1ZsdR3ENscnbk-1" edge="1">
          <mxGeometry width="50" height="50" relative="1" as="geometry">
            <mxPoint x="-108" y="-78" as="sourcePoint" />
            <mxPoint x="-16" y="-122" as="targetPoint" />
          </mxGeometry>
        </mxCell>
        <mxCell id="hnx5gWg1ZsdR3ENscnbk-22" value="create task branch" style="edgeLabel;html=1;align=center;verticalAlign=middle;resizable=0;points=[];fontSize=12;" parent="hnx5gWg1ZsdR3ENscnbk-20" vertex="1" connectable="0">
          <mxGeometry x="0.0413" relative="1" as="geometry">
            <mxPoint as="offset" />
          </mxGeometry>
        </mxCell>
        <mxCell id="hnx5gWg1ZsdR3ENscnbk-21" value="hotfix" style="rounded=1;whiteSpace=wrap;html=1;" parent="1" vertex="1">
          <mxGeometry x="245" y="272" width="120" height="60" as="geometry" />
        </mxCell>
        <mxCell id="hnx5gWg1ZsdR3ENscnbk-25" value="identify release candidates&amp;nbsp;&lt;div&gt;&amp;amp; feature flag&lt;/div&gt;" style="endArrow=classic;html=1;rounded=0;fontSize=12;startSize=8;endSize=8;curved=1;exitX=0.5;exitY=1;exitDx=0;exitDy=0;entryX=0.5;entryY=0;entryDx=0;entryDy=0;dashed=1;dashPattern=8 8;" parent="1" source="hnx5gWg1ZsdR3ENscnbk-2" target="hnx5gWg1ZsdR3ENscnbk-39" edge="1">
          <mxGeometry width="50" height="50" relative="1" as="geometry">
            <mxPoint x="59" y="69" as="sourcePoint" />
            <mxPoint x="-16" y="189" as="targetPoint" />
            <mxPoint as="offset" />
          </mxGeometry>
        </mxCell>
        <mxCell id="hnx5gWg1ZsdR3ENscnbk-27" value="" style="endArrow=classic;html=1;rounded=0;fontSize=12;startSize=8;endSize=8;curved=1;exitX=1;exitY=0.5;exitDx=0;exitDy=0;entryX=0;entryY=0.5;entryDx=0;entryDy=0;" parent="1" source="hnx5gWg1ZsdR3ENscnbk-2" target="hnx5gWg1ZsdR3ENscnbk-35" edge="1">
          <mxGeometry width="50" height="50" relative="1" as="geometry">
            <mxPoint x="97" y="17" as="sourcePoint" />
            <mxPoint x="145" y="4" as="targetPoint" />
          </mxGeometry>
        </mxCell>
        <mxCell id="hnx5gWg1ZsdR3ENscnbk-28" value="test" style="edgeLabel;html=1;align=center;verticalAlign=middle;resizable=0;points=[];fontSize=12;" parent="hnx5gWg1ZsdR3ENscnbk-27" vertex="1" connectable="0">
          <mxGeometry x="-0.1136" relative="1" as="geometry">
            <mxPoint as="offset" />
          </mxGeometry>
        </mxCell>
        <mxCell id="hnx5gWg1ZsdR3ENscnbk-30" value="" style="endArrow=classic;html=1;rounded=0;fontSize=12;startSize=8;endSize=8;curved=1;exitX=1;exitY=0.5;exitDx=0;exitDy=0;entryX=0;entryY=0.5;entryDx=0;entryDy=0;" parent="1" source="hnx5gWg1ZsdR3ENscnbk-35" target="hnx5gWg1ZsdR3ENscnbk-36" edge="1">
          <mxGeometry width="50" height="50" relative="1" as="geometry">
            <mxPoint x="265" y="4" as="sourcePoint" />
            <mxPoint x="356" y="4" as="targetPoint" />
          </mxGeometry>
        </mxCell>
        <mxCell id="hnx5gWg1ZsdR3ENscnbk-31" value="if test fail" style="edgeLabel;html=1;align=center;verticalAlign=middle;resizable=0;points=[];fontSize=12;" parent="hnx5gWg1ZsdR3ENscnbk-30" vertex="1" connectable="0">
          <mxGeometry x="-0.2521" y="-1" relative="1" as="geometry">
            <mxPoint as="offset" />
          </mxGeometry>
        </mxCell>
        <mxCell id="hnx5gWg1ZsdR3ENscnbk-32" value="" style="curved=1;endArrow=classic;html=1;rounded=0;fontSize=12;startSize=8;endSize=8;entryX=1;entryY=0.5;entryDx=0;entryDy=0;exitX=0.5;exitY=0;exitDx=0;exitDy=0;" parent="1" source="hnx5gWg1ZsdR3ENscnbk-36" target="hnx5gWg1ZsdR3ENscnbk-1" edge="1">
          <mxGeometry width="50" height="50" relative="1" as="geometry">
            <mxPoint x="423" y="-47" as="sourcePoint" />
            <mxPoint x="409" y="-137" as="targetPoint" />
            <Array as="points">
              <mxPoint x="416" y="-87" />
              <mxPoint x="419" y="-202" />
              <mxPoint x="326" y="-209" />
              <mxPoint x="212" y="-207" />
            </Array>
          </mxGeometry>
        </mxCell>
        <mxCell id="hnx5gWg1ZsdR3ENscnbk-33" value="fix" style="edgeLabel;html=1;align=center;verticalAlign=middle;resizable=0;points=[];fontSize=12;" parent="hnx5gWg1ZsdR3ENscnbk-32" vertex="1" connectable="0">
          <mxGeometry x="-0.3064" y="14" relative="1" as="geometry">
            <mxPoint as="offset" />
          </mxGeometry>
        </mxCell>
        <mxCell id="hnx5gWg1ZsdR3ENscnbk-35" value="&lt;meta charset=&quot;utf-8&quot;&gt;&lt;span style=&quot;color: rgb(0, 0, 0); font-family: Helvetica; font-size: 12px; font-style: normal; font-variant-ligatures: normal; font-variant-caps: normal; font-weight: 400; letter-spacing: normal; orphans: 2; text-align: center; text-indent: 0px; text-transform: none; widows: 2; word-spacing: 0px; -webkit-text-stroke-width: 0px; white-space: normal; background-color: rgb(255, 255, 255); text-decoration-thickness: initial; text-decoration-style: initial; text-decoration-color: initial; display: inline !important; float: none;&quot;&gt;test the ticket&lt;/span&gt;" style="shape=parallelogram;perimeter=parallelogramPerimeter;whiteSpace=wrap;html=1;fixedSize=1;" parent="1" vertex="1">
          <mxGeometry x="147" y="-26" width="120" height="60" as="geometry" />
        </mxCell>
        <mxCell id="hnx5gWg1ZsdR3ENscnbk-36" value="record bug" style="shape=parallelogram;perimeter=parallelogramPerimeter;whiteSpace=wrap;html=1;fixedSize=1;" parent="1" vertex="1">
          <mxGeometry x="356" y="-26" width="120" height="60" as="geometry" />
        </mxCell>
        <mxCell id="hnx5gWg1ZsdR3ENscnbk-37" value="pull request" style="shape=parallelogram;perimeter=parallelogramPerimeter;whiteSpace=wrap;html=1;fixedSize=1;" parent="1" vertex="1">
          <mxGeometry x="163" y="-138" width="120" height="60" as="geometry" />
        </mxCell>
        <mxCell id="hnx5gWg1ZsdR3ENscnbk-39" value="release candidate" style="shape=parallelogram;perimeter=parallelogramPerimeter;whiteSpace=wrap;html=1;fixedSize=1;" parent="1" vertex="1">
          <mxGeometry x="-76" y="136" width="120" height="60" as="geometry" />
        </mxCell>
        <mxCell id="hnx5gWg1ZsdR3ENscnbk-40" value="" style="endArrow=classic;html=1;rounded=0;fontSize=12;startSize=8;endSize=8;curved=1;exitX=0.5;exitY=1;exitDx=0;exitDy=0;entryX=0.5;entryY=0;entryDx=0;entryDy=0;" parent="1" source="hnx5gWg1ZsdR3ENscnbk-39" target="hnx5gWg1ZsdR3ENscnbk-3" edge="1">
          <mxGeometry width="50" height="50" relative="1" as="geometry">
            <mxPoint x="36" y="250" as="sourcePoint" />
            <mxPoint x="86" y="200" as="targetPoint" />
          </mxGeometry>
        </mxCell>
        <mxCell id="hnx5gWg1ZsdR3ENscnbk-41" value="merge" style="edgeLabel;html=1;align=center;verticalAlign=middle;resizable=0;points=[];fontSize=12;" parent="hnx5gWg1ZsdR3ENscnbk-40" vertex="1" connectable="0">
          <mxGeometry x="0.0731" y="-1" relative="1" as="geometry">
            <mxPoint x="1" y="-9" as="offset" />
          </mxGeometry>
        </mxCell>
        <mxCell id="hnx5gWg1ZsdR3ENscnbk-42" value="" style="endArrow=classic;html=1;rounded=0;fontSize=12;startSize=8;endSize=8;curved=1;exitX=0.5;exitY=1;exitDx=0;exitDy=0;entryX=0.5;entryY=0;entryDx=0;entryDy=0;" parent="1" source="hnx5gWg1ZsdR3ENscnbk-3" target="hnx5gWg1ZsdR3ENscnbk-50" edge="1">
          <mxGeometry width="50" height="50" relative="1" as="geometry">
            <mxPoint x="120" y="312" as="sourcePoint" />
            <mxPoint x="-16" y="416" as="targetPoint" />
          </mxGeometry>
        </mxCell>
        <mxCell id="hnx5gWg1ZsdR3ENscnbk-49" value="tag the release" style="edgeLabel;html=1;align=center;verticalAlign=middle;resizable=0;points=[];fontSize=12;" parent="hnx5gWg1ZsdR3ENscnbk-42" vertex="1" connectable="0">
          <mxGeometry x="-0.1341" y="-1" relative="1" as="geometry">
            <mxPoint as="offset" />
          </mxGeometry>
        </mxCell>
        <mxCell id="hnx5gWg1ZsdR3ENscnbk-43" value="" style="endArrow=classic;html=1;rounded=0;fontSize=12;startSize=8;endSize=8;curved=1;exitX=1;exitY=0.75;exitDx=0;exitDy=0;entryX=0;entryY=0.75;entryDx=0;entryDy=0;dashed=1;dashPattern=8 8;" parent="1" source="hnx5gWg1ZsdR3ENscnbk-3" target="hnx5gWg1ZsdR3ENscnbk-21" edge="1">
          <mxGeometry width="50" height="50" relative="1" as="geometry">
            <mxPoint x="120" y="312" as="sourcePoint" />
            <mxPoint x="170" y="262" as="targetPoint" />
            <Array as="points">
              <mxPoint x="144" y="365" />
            </Array>
          </mxGeometry>
        </mxCell>
        <mxCell id="hnx5gWg1ZsdR3ENscnbk-48" value="&amp;nbsp;create hotfix branch&amp;nbsp;" style="edgeLabel;html=1;align=center;verticalAlign=middle;resizable=0;points=[];fontSize=12;" parent="hnx5gWg1ZsdR3ENscnbk-43" vertex="1" connectable="0">
          <mxGeometry x="-0.1357" y="-1" relative="1" as="geometry">
            <mxPoint x="14" y="-22" as="offset" />
          </mxGeometry>
        </mxCell>
        <mxCell id="hnx5gWg1ZsdR3ENscnbk-44" value="" style="curved=1;endArrow=classic;html=1;rounded=0;fontSize=12;startSize=8;endSize=8;exitX=0;exitY=0.25;exitDx=0;exitDy=0;entryX=1;entryY=0.25;entryDx=0;entryDy=0;" parent="1" edge="1" target="hnx5gWg1ZsdR3ENscnbk-3" source="hnx5gWg1ZsdR3ENscnbk-21">
          <mxGeometry width="50" height="50" relative="1" as="geometry">
            <mxPoint x="305" y="266.9999999999998" as="sourcePoint" />
            <mxPoint x="44" y="266.9999999999998" as="targetPoint" />
            <Array as="points">
              <mxPoint x="221" y="261" />
              <mxPoint x="146" y="256" />
              <mxPoint x="79" y="261" />
            </Array>
          </mxGeometry>
        </mxCell>
        <mxCell id="hnx5gWg1ZsdR3ENscnbk-46" value="&amp;nbsp;PR &amp;amp; merge&amp;nbsp;" style="edgeLabel;html=1;align=center;verticalAlign=middle;resizable=0;points=[];fontSize=12;" parent="hnx5gWg1ZsdR3ENscnbk-44" vertex="1" connectable="0">
          <mxGeometry x="0.0588" y="2" relative="1" as="geometry">
            <mxPoint as="offset" />
          </mxGeometry>
        </mxCell>
        <mxCell id="hnx5gWg1ZsdR3ENscnbk-50" value="release" style="shape=parallelogram;perimeter=parallelogramPerimeter;whiteSpace=wrap;html=1;fixedSize=1;" parent="1" vertex="1">
          <mxGeometry x="-76" y="420" width="120" height="60" as="geometry" />
        </mxCell>
        <mxCell id="-KRKk8wNR3I56EUiNq8g-2" value="" style="curved=1;endArrow=classic;html=1;rounded=0;exitX=1;exitY=0;exitDx=0;exitDy=0;entryX=1;entryY=1;entryDx=0;entryDy=0;" edge="1" parent="1" source="hnx5gWg1ZsdR3ENscnbk-3" target="hnx5gWg1ZsdR3ENscnbk-2">
          <mxGeometry width="50" height="50" relative="1" as="geometry">
            <mxPoint x="126" y="111" as="sourcePoint" />
            <mxPoint x="176" y="61" as="targetPoint" />
            <Array as="points">
              <mxPoint x="114" y="231" />
              <mxPoint x="126" y="85" />
            </Array>
          </mxGeometry>
        </mxCell>
        <mxCell id="-KRKk8wNR3I56EUiNq8g-3" value="PR &amp;amp; merge hotfix&amp;nbsp;" style="edgeLabel;html=1;align=center;verticalAlign=middle;resizable=0;points=[];" vertex="1" connectable="0" parent="-KRKk8wNR3I56EUiNq8g-2">
          <mxGeometry x="0.0158" y="-1" relative="1" as="geometry">
            <mxPoint x="7" as="offset" />
          </mxGeometry>
        </mxCell>
      </root>
    </mxGraphModel>
  </diagram>
</mxfile>
